<svg xmlns="http://www.w3.org/2000/svg" xmlns:ns0="http://www.iki.fi/pav/software/textext/" xmlns:svg="http://www.w3.org/2000/svg" xmlns:xlink="http://www.w3.org/1999/xlink" id="svg2" width="190.845" height="274.107" x="0" y="0" version="1.1" viewBox="0 0 190.845 274.107"><metadata id="metadata200"/><desc id="desc6"><Title id="Title8"/><Creator id="Creator10">FreeHEP Graphics2D Driver</Creator><Producer id="Producer12">org.freehep.graphicsio.svg.SVGGraphics2D Revision: 9331</Producer><Source id="Source14"/><Date id="Date16">Tuesday, December 11, 2007 4:02:46 PM CET</Date></desc><g id="g31" transform="matrix(0.79481556,0,0,0.79481556,8.6265665,39.968136)" style="stroke-width:1;stroke-linecap:square;stroke-linejoin:miter;stroke-miterlimit:10;stroke-dasharray:none;stroke-dashoffset:0"><clipPath id="clip2"><path id="path34" d="m 0,0 0,242 171,0 0,-242 z"/></clipPath><g id="g36" clip-path="url(#clip2)"><g id="g38" fill-rule="nonzero;" style="fill:#3f0;fill-opacity:.25097997;stroke:none"><path id="path40" d="M 54.579,222.93 10,17 153.22,110.25 z"/></g></g></g><g id="g42" transform="matrix(1.0864454,0,0,1.0864454,5.8560827,0.16066122)" style="stroke-width:1;stroke-linecap:square;stroke-linejoin:miter;stroke-miterlimit:10;stroke-dasharray:none;stroke-dashoffset:0"><clipPath id="clip3"><path id="path45" d="m 0,0 0,242 171,0 0,-242 z"/></clipPath><g id="g47" clip-path="url(#clip3)"><g id="g49" style="fill:none;stroke:#000;stroke-linecap:round;stroke-linejoin:round;stroke-opacity:1"><path id="path51" d="M 10,137 64.47,242"/></g></g></g><g id="g53" transform="matrix(1.0068899,0,0,1.0068899,6.6118605,10.807919)" style="stroke-width:1;stroke-linecap:square;stroke-linejoin:miter;stroke-miterlimit:10;stroke-dasharray:none;stroke-dashoffset:0"><clipPath id="clip4"><path id="path56" d="m 0,0 0,242 171,0 0,-242 z"/></clipPath><g id="g58" clip-path="url(#clip4)"><g id="g60" style="fill:none;stroke:#000;stroke-linecap:round;stroke-linejoin:round;stroke-opacity:1"><path id="path62" d="M 10,137 171,106.93"/></g></g></g><g id="g64" transform="matrix(0.79481556,0,0,0.79481556,8.6265665,39.968136)" style="stroke-width:1;stroke-linecap:square;stroke-linejoin:miter;stroke-miterlimit:10;stroke-dasharray:none;stroke-dashoffset:0"><clipPath id="clip5"><path id="path67" d="m 0,0 0,242 171,0 0,-242 z"/></clipPath><g id="g69" clip-path="url(#clip5)"><g id="g71" style="fill:none;stroke:#3f0;stroke-width:1.5;stroke-linecap:round;stroke-linejoin:round;stroke-opacity:1"><path id="path73" d="M 54.579,222.93 10,17"/></g></g></g><g id="g75" transform="matrix(0.79481556,0,0,0.79481556,8.6265665,39.968136)" style="stroke-width:1;stroke-linecap:square;stroke-linejoin:miter;stroke-miterlimit:10;stroke-dasharray:none;stroke-dashoffset:0"><clipPath id="clip6"><path id="path78" d="m 0,0 0,242 171,0 0,-242 z"/></clipPath><g id="g80" clip-path="url(#clip6)"><g id="g82" style="fill:none;stroke:#3f0;stroke-width:1.5;stroke-linecap:round;stroke-linejoin:round;stroke-opacity:1"><path id="path84" d="m 10,17 143.22,93.25"/></g></g></g><g id="g86" transform="matrix(0.79481556,0,0,0.79481556,8.6265665,39.968136)" style="stroke-width:1;stroke-linecap:square;stroke-linejoin:miter;stroke-miterlimit:10;stroke-dasharray:none;stroke-dashoffset:0"><clipPath id="clip7"><path id="path89" d="m 0,0 0,242 171,0 0,-242 z"/></clipPath><g id="g91" clip-path="url(#clip7)"><g id="g93" style="fill:none;stroke:#3f0;stroke-width:1.5;stroke-linecap:round;stroke-linejoin:round;stroke-opacity:1"><path id="path95" d="M 153.22,110.25 54.579,222.93"/></g></g></g><g id="g97" transform="matrix(0.79481556,0,0,1.0059096,8.6265665,10.942712)" style="stroke-width:1;stroke-linecap:square;stroke-linejoin:miter;stroke-miterlimit:10;stroke-dasharray:none;stroke-dashoffset:0"><clipPath id="clip8"><path id="path100" d="m 0,0 0,242 171,0 0,-242 z"/></clipPath><g id="g102" clip-path="url(#clip8)"><g id="g104" style="fill:none;stroke:#000;stroke-linecap:round;stroke-linejoin:round;stroke-opacity:1"><path id="path106" d="M 10,137 10,0"/></g></g></g><g id="g108" transform="matrix(0.79481556,0,0,0.79481556,8.6265665,39.968136)" style="stroke-width:1;stroke-linecap:square;stroke-linejoin:miter;stroke-miterlimit:10;stroke-dasharray:none;stroke-dashoffset:0"><clipPath id="clip9"><path id="path111" d="m 0,0 0,242 171,0 0,-242 z"/></clipPath><g id="g113" clip-path="url(#clip9)"><g id="g115" fill-rule="nonzero;" style="fill:#000;fill-opacity:1;stroke:none"><path id="path117" d="m 13,137 c 0,1.66 -1.343,3 -3,3 -1.6569,0 -3,-1.34 -3,-3 0,-1.66 1.3431,-3 3,-3 1.657,0 3,1.34 3,3 z"/></g></g></g><g id="g119" transform="matrix(0.79481556,0,0,0.79481556,8.6265665,39.968136)" style="stroke-width:1;stroke-linecap:square;stroke-linejoin:miter;stroke-miterlimit:10;stroke-dasharray:none;stroke-dashoffset:0"><clipPath id="clip10"><path id="path122" d="m 0,0 0,242 171,0 0,-242 z"/></clipPath><g id="g124" clip-path="url(#clip10)"><g id="g126" style="fill:none;stroke:#000;stroke-linecap:round;stroke-linejoin:round;stroke-opacity:1"><path id="path128" d="m 13,137 c 0,1.66 -1.343,3 -3,3 -1.6569,0 -3,-1.34 -3,-3 0,-1.66 1.3431,-3 3,-3 1.657,0 3,1.34 3,3 z"/></g></g></g><g id="g130" transform="matrix(0.79481556,0,0,0.79481556,8.6265665,39.968136)" style="stroke-width:1;stroke-linecap:square;stroke-linejoin:miter;stroke-miterlimit:10;stroke-dasharray:none;stroke-dashoffset:0"><clipPath id="clip11"><path id="path133" d="m 0,0 0,242 171,0 0,-242 z"/></clipPath><g id="g135" clip-path="url(#clip11)"><g id="g137" fill-rule="nonzero;" style="fill:#6f0;fill-opacity:1;stroke:none"><path id="path139" d="m 13,17 c 0,1.657 -1.343,3 -3,3 -1.6569,0 -3,-1.343 -3,-3 0,-1.657 1.3431,-3 3,-3 1.657,0 3,1.343 3,3 z"/></g></g></g><g id="g141" transform="matrix(0.79481556,0,0,0.79481556,8.6265665,39.968136)" style="stroke-width:1;stroke-linecap:square;stroke-linejoin:miter;stroke-miterlimit:10;stroke-dasharray:none;stroke-dashoffset:0"><clipPath id="clip12"><path id="path144" d="m 0,0 0,242 171,0 0,-242 z"/></clipPath><g id="g146" clip-path="url(#clip12)"><g id="g148" style="fill:none;stroke:#000;stroke-linecap:round;stroke-linejoin:round;stroke-opacity:1"><path id="path150" d="m 13,17 c 0,1.657 -1.343,3 -3,3 -1.6569,0 -3,-1.343 -3,-3 0,-1.657 1.3431,-3 3,-3 1.657,0 3,1.343 3,3 z"/></g></g></g><g id="g152" transform="matrix(0.79481556,0,0,0.79481556,8.6265665,39.968136)" style="stroke-width:1;stroke-linecap:square;stroke-linejoin:miter;stroke-miterlimit:10;stroke-dasharray:none;stroke-dashoffset:0"><clipPath id="clip13"><path id="path155" d="m 0,0 0,242 171,0 0,-242 z"/></clipPath><g id="g157" clip-path="url(#clip13)"><g id="g159" fill-rule="nonzero;" style="fill:#6f0;fill-opacity:1;stroke:none"><path id="path161" d="m 57.579,222.93 c 0,1.66 -1.343,3 -3,3 -1.657,0 -3,-1.34 -3,-3 0,-1.65 1.343,-3 3,-3 1.657,0 3,1.35 3,3 z"/></g></g></g><g id="g163" transform="matrix(0.79481556,0,0,0.79481556,8.6265665,39.968136)" style="stroke-width:1;stroke-linecap:square;stroke-linejoin:miter;stroke-miterlimit:10;stroke-dasharray:none;stroke-dashoffset:0"><clipPath id="clip14"><path id="path166" d="m 0,0 0,242 171,0 0,-242 z"/></clipPath><g id="g168" clip-path="url(#clip14)"><g id="g170" style="fill:none;stroke:#000;stroke-linecap:round;stroke-linejoin:round;stroke-opacity:1"><path id="path172" d="m 57.579,222.93 c 0,1.66 -1.343,3 -3,3 -1.657,0 -3,-1.34 -3,-3 0,-1.65 1.343,-3 3,-3 1.657,0 3,1.35 3,3 z"/></g></g></g><g id="g174" transform="matrix(0.79481556,0,0,0.79481556,8.6265665,39.968136)" style="stroke-width:1;stroke-linecap:square;stroke-linejoin:miter;stroke-miterlimit:10;stroke-dasharray:none;stroke-dashoffset:0"><clipPath id="clip15"><path id="path177" d="m 0,0 0,242 171,0 0,-242 z"/></clipPath><g id="g179" clip-path="url(#clip15)"><g id="g181" fill-rule="nonzero;" style="fill:#6f0;fill-opacity:1;stroke:none"><path id="path183" d="m 156.22,110.25 c 0,1.66 -1.34,3 -3,3 -1.65,0 -3,-1.34 -3,-3 0,-1.65 1.35,-3 3,-3 1.66,0 3,1.35 3,3 z"/></g></g></g><g id="g185" transform="matrix(0.79481556,0,0,0.79481556,8.6265665,39.968136)" style="stroke-width:1;stroke-linecap:square;stroke-linejoin:miter;stroke-miterlimit:10;stroke-dasharray:none;stroke-dashoffset:0"><clipPath id="clip16"><path id="path188" d="m 0,0 0,242 171,0 0,-242 z"/></clipPath><g id="g190" clip-path="url(#clip16)"><g id="g192" style="fill:none;stroke:#000;stroke-linecap:round;stroke-linejoin:round;stroke-opacity:1"><path id="path194" d="m 156.22,110.25 c 0,1.66 -1.34,3 -3,3 -1.65,0 -3,-1.34 -3,-3 0,-1.65 1.35,-3 3,-3 1.66,0 3,1.35 3,3 z"/></g></g></g><g id="layer3" transform="translate(34.749447,91.052882)" style="display:inline"><g id="g8051" transform="translate(-262.70815,-4.9257777)" ns0:text="$\\theta=(1,1,0)$"><defs id="defs8053"><g id="g8055"><symbol id="textext-3ca68075-0" overflow="visible" style="overflow:visible"><path id="path8058" style="stroke:none"/></symbol><symbol id="textext-3ca68075-1" overflow="visible" style="overflow:visible"><path id="path8061" d="m 4.53125,-4.984375 c 0,-0.65625 -0.171875,-2.046875 -1.1875,-2.046875 -1.390625,0 -2.921875,2.8125 -2.921875,5.09375 0,0.9375 0.28125,2.046875 1.1875,2.046875 1.40625,0 2.921875,-2.859375 2.921875,-5.09375 z M 1.46875,-3.625 C 1.640625,-4.25 1.84375,-5.046875 2.25,-5.765625 2.515625,-6.25 2.875,-6.8125 3.328125,-6.8125 c 0.484375,0 0.546875,0.640625 0.546875,1.203125 0,0.5 -0.078125,1 -0.3125,1.984375 z m 2,0.328125 C 3.359375,-2.84375 3.15625,-2 2.765625,-1.28125 c -0.34375,0.6875 -0.71875,1.171875 -1.15625,1.171875 -0.328125,0 -0.53125,-0.296875 -0.53125,-1.21875 0,-0.421875 0.0625,-1 0.3125,-1.96875 z" style="stroke:none"/></symbol><symbol id="textext-3ca68075-2" overflow="visible" style="overflow:visible"><path id="path8064" d="m 2.03125,-0.015625 c 0,-0.65625 -0.25,-1.046875 -0.640625,-1.046875 -0.328125,0 -0.53125,0.25 -0.53125,0.53125 C 0.859375,-0.265625 1.0625,0 1.390625,0 1.5,0 1.640625,-0.046875 1.734375,-0.125 1.765625,-0.15625 1.78125,-0.15625 1.78125,-0.15625 c 0.015625,0 0.015625,0 0.015625,0.140625 0,0.75 -0.34375,1.34375 -0.671875,1.671875 -0.109375,0.109375 -0.109375,0.125 -0.109375,0.15625 0,0.078125 0.046875,0.109375 0.09375,0.109375 0.109375,0 0.921875,-0.765625 0.921875,-1.9375 z" style="stroke:none"/></symbol><symbol id="textext-3ca68075-3" overflow="visible" style="overflow:visible"><path id="path8067" style="stroke:none"/></symbol><symbol id="textext-3ca68075-4" overflow="visible" style="overflow:visible"><path id="path8070" d="m 6.84375,-3.265625 c 0.15625,0 0.34375,0 0.34375,-0.1875 C 7.1875,-3.65625 7,-3.65625 6.859375,-3.65625 l -5.96875,0 c -0.140625,0 -0.328125,0 -0.328125,0.203125 0,0.1875 0.1875,0.1875 0.328125,0.1875 z m 0.015625,1.9375 c 0.140625,0 0.328125,0 0.328125,-0.203125 0,-0.1875 -0.1875,-0.1875 -0.34375,-0.1875 l -5.953125,0 c -0.140625,0 -0.328125,0 -0.328125,0.1875 0,0.203125 0.1875,0.203125 0.328125,0.203125 z" style="stroke:none"/></symbol><symbol id="textext-3ca68075-5" overflow="visible" style="overflow:visible"><path id="path8073" d="m 3.296875,2.390625 c 0,-0.03125 0,-0.046875 -0.171875,-0.21875 C 1.890625,0.921875 1.5625,-0.96875 1.5625,-2.5 c 0,-1.734375 0.375,-3.46875 1.609375,-4.703125 0.125,-0.125 0.125,-0.140625 0.125,-0.171875 0,-0.078125 -0.03125,-0.109375 -0.09375,-0.109375 -0.109375,0 -1,0.6875 -1.59375,1.953125 -0.5,1.09375 -0.625,2.203125 -0.625,3.03125 0,0.78125 0.109375,1.984375 0.65625,3.125 C 2.25,1.84375 3.09375,2.5 3.203125,2.5 c 0.0625,0 0.09375,-0.03125 0.09375,-0.109375 z" style="stroke:none"/></symbol><symbol id="textext-3ca68075-6" overflow="visible" style="overflow:visible"><path id="path8076" d="m 2.9375,-6.375 c 0,-0.25 0,-0.265625 -0.234375,-0.265625 C 2.078125,-6 1.203125,-6 0.890625,-6 l 0,0.3125 c 0.203125,0 0.78125,0 1.296875,-0.265625 l 0,5.171875 c 0,0.359375 -0.03125,0.46875 -0.921875,0.46875 l -0.3125,0 0,0.3125 c 0.34375,-0.03125 1.203125,-0.03125 1.609375,-0.03125 0.390625,0 1.265625,0 1.609375,0.03125 l 0,-0.3125 -0.3125,0 c -0.90625,0 -0.921875,-0.109375 -0.921875,-0.46875 z" style="stroke:none"/></symbol><symbol id="textext-3ca68075-7" overflow="visible" style="overflow:visible"><path id="path8079" d="m 4.578125,-3.1875 c 0,-0.796875 -0.046875,-1.59375 -0.390625,-2.328125 -0.453125,-0.96875 -1.28125,-1.125 -1.6875,-1.125 -0.609375,0 -1.328125,0.265625 -1.75,1.1875 -0.3125,0.6875 -0.359375,1.46875 -0.359375,2.265625 0,0.75 0.03125,1.640625 0.453125,2.40625 0.421875,0.796875 1.15625,1 1.640625,1 0.53125,0 1.296875,-0.203125 1.734375,-1.15625 0.3125,-0.6875 0.359375,-1.46875 0.359375,-2.25 z M 2.484375,0 C 2.09375,0 1.5,-0.25 1.328125,-1.203125 1.21875,-1.796875 1.21875,-2.71875 1.21875,-3.3125 c 0,-0.640625 0,-1.296875 0.078125,-1.828125 0.1875,-1.1875 0.9375,-1.28125 1.1875,-1.28125 0.328125,0 0.984375,0.1875 1.171875,1.171875 0.109375,0.5625 0.109375,1.3125 0.109375,1.9375 0,0.75 0,1.421875 -0.109375,2.0625 C 3.5,-0.296875 2.9375,0 2.484375,0 z" style="stroke:none"/></symbol><symbol id="textext-3ca68075-8" overflow="visible" style="overflow:visible"><path id="path8082" d="m 2.875,-2.5 c 0,-0.765625 -0.109375,-1.96875 -0.65625,-3.109375 -0.59375,-1.21875 -1.453125,-1.875 -1.546875,-1.875 -0.0625,0 -0.109375,0.046875 -0.109375,0.109375 0,0.03125 0,0.046875 0.1875,0.234375 0.984375,0.984375 1.546875,2.5625 1.546875,4.640625 0,1.71875 -0.359375,3.46875 -1.59375,4.71875 C 0.5625,2.34375 0.5625,2.359375 0.5625,2.390625 0.5625,2.453125 0.609375,2.5 0.671875,2.5 0.765625,2.5 1.671875,1.8125 2.25,0.546875 2.765625,-0.546875 2.875,-1.65625 2.875,-2.5 z" style="stroke:none"/></symbol></g></defs></g><g id="g9309" transform="translate(-199.90448,-5.7467407)" ns0:text="$\\theta=(1,0,0)$"><defs id="defs9311"><g id="g9313"><symbol id="textext-372f409d-0" overflow="visible" style="overflow:visible"><path id="path9316" style="stroke:none"/></symbol><symbol id="textext-372f409d-1" overflow="visible" style="overflow:visible"><path id="path9319" d="m 4.53125,-4.984375 c 0,-0.65625 -0.171875,-2.046875 -1.1875,-2.046875 -1.390625,0 -2.921875,2.8125 -2.921875,5.09375 0,0.9375 0.28125,2.046875 1.1875,2.046875 1.40625,0 2.921875,-2.859375 2.921875,-5.09375 z M 1.46875,-3.625 C 1.640625,-4.25 1.84375,-5.046875 2.25,-5.765625 2.515625,-6.25 2.875,-6.8125 3.328125,-6.8125 c 0.484375,0 0.546875,0.640625 0.546875,1.203125 0,0.5 -0.078125,1 -0.3125,1.984375 z m 2,0.328125 C 3.359375,-2.84375 3.15625,-2 2.765625,-1.28125 c -0.34375,0.6875 -0.71875,1.171875 -1.15625,1.171875 -0.328125,0 -0.53125,-0.296875 -0.53125,-1.21875 0,-0.421875 0.0625,-1 0.3125,-1.96875 z" style="stroke:none"/></symbol><symbol id="textext-372f409d-2" overflow="visible" style="overflow:visible"><path id="path9322" d="m 2.03125,-0.015625 c 0,-0.65625 -0.25,-1.046875 -0.640625,-1.046875 -0.328125,0 -0.53125,0.25 -0.53125,0.53125 C 0.859375,-0.265625 1.0625,0 1.390625,0 1.5,0 1.640625,-0.046875 1.734375,-0.125 1.765625,-0.15625 1.78125,-0.15625 1.78125,-0.15625 c 0.015625,0 0.015625,0 0.015625,0.140625 0,0.75 -0.34375,1.34375 -0.671875,1.671875 -0.109375,0.109375 -0.109375,0.125 -0.109375,0.15625 0,0.078125 0.046875,0.109375 0.09375,0.109375 0.109375,0 0.921875,-0.765625 0.921875,-1.9375 z" style="stroke:none"/></symbol><symbol id="textext-372f409d-3" overflow="visible" style="overflow:visible"><path id="path9325" style="stroke:none"/></symbol><symbol id="textext-372f409d-4" overflow="visible" style="overflow:visible"><path id="path9328" d="m 6.84375,-3.265625 c 0.15625,0 0.34375,0 0.34375,-0.1875 C 7.1875,-3.65625 7,-3.65625 6.859375,-3.65625 l -5.96875,0 c -0.140625,0 -0.328125,0 -0.328125,0.203125 0,0.1875 0.1875,0.1875 0.328125,0.1875 z m 0.015625,1.9375 c 0.140625,0 0.328125,0 0.328125,-0.203125 0,-0.1875 -0.1875,-0.1875 -0.34375,-0.1875 l -5.953125,0 c -0.140625,0 -0.328125,0 -0.328125,0.1875 0,0.203125 0.1875,0.203125 0.328125,0.203125 z" style="stroke:none"/></symbol><symbol id="textext-372f409d-5" overflow="visible" style="overflow:visible"><path id="path9331" d="m 3.296875,2.390625 c 0,-0.03125 0,-0.046875 -0.171875,-0.21875 C 1.890625,0.921875 1.5625,-0.96875 1.5625,-2.5 c 0,-1.734375 0.375,-3.46875 1.609375,-4.703125 0.125,-0.125 0.125,-0.140625 0.125,-0.171875 0,-0.078125 -0.03125,-0.109375 -0.09375,-0.109375 -0.109375,0 -1,0.6875 -1.59375,1.953125 -0.5,1.09375 -0.625,2.203125 -0.625,3.03125 0,0.78125 0.109375,1.984375 0.65625,3.125 C 2.25,1.84375 3.09375,2.5 3.203125,2.5 c 0.0625,0 0.09375,-0.03125 0.09375,-0.109375 z" style="stroke:none"/></symbol><symbol id="textext-372f409d-6" overflow="visible" style="overflow:visible"><path id="path9334" d="m 2.9375,-6.375 c 0,-0.25 0,-0.265625 -0.234375,-0.265625 C 2.078125,-6 1.203125,-6 0.890625,-6 l 0,0.3125 c 0.203125,0 0.78125,0 1.296875,-0.265625 l 0,5.171875 c 0,0.359375 -0.03125,0.46875 -0.921875,0.46875 l -0.3125,0 0,0.3125 c 0.34375,-0.03125 1.203125,-0.03125 1.609375,-0.03125 0.390625,0 1.265625,0 1.609375,0.03125 l 0,-0.3125 -0.3125,0 c -0.90625,0 -0.921875,-0.109375 -0.921875,-0.46875 z" style="stroke:none"/></symbol><symbol id="textext-372f409d-7" overflow="visible" style="overflow:visible"><path id="path9337" d="m 4.578125,-3.1875 c 0,-0.796875 -0.046875,-1.59375 -0.390625,-2.328125 -0.453125,-0.96875 -1.28125,-1.125 -1.6875,-1.125 -0.609375,0 -1.328125,0.265625 -1.75,1.1875 -0.3125,0.6875 -0.359375,1.46875 -0.359375,2.265625 0,0.75 0.03125,1.640625 0.453125,2.40625 0.421875,0.796875 1.15625,1 1.640625,1 0.53125,0 1.296875,-0.203125 1.734375,-1.15625 0.3125,-0.6875 0.359375,-1.46875 0.359375,-2.25 z M 2.484375,0 C 2.09375,0 1.5,-0.25 1.328125,-1.203125 1.21875,-1.796875 1.21875,-2.71875 1.21875,-3.3125 c 0,-0.640625 0,-1.296875 0.078125,-1.828125 0.1875,-1.1875 0.9375,-1.28125 1.1875,-1.28125 0.328125,0 0.984375,0.1875 1.171875,1.171875 0.109375,0.5625 0.109375,1.3125 0.109375,1.9375 0,0.75 0,1.421875 -0.109375,2.0625 C 3.5,-0.296875 2.9375,0 2.484375,0 z" style="stroke:none"/></symbol><symbol id="textext-372f409d-8" overflow="visible" style="overflow:visible"><path id="path9340" d="m 2.875,-2.5 c 0,-0.765625 -0.109375,-1.96875 -0.65625,-3.109375 -0.59375,-1.21875 -1.453125,-1.875 -1.546875,-1.875 -0.0625,0 -0.109375,0.046875 -0.109375,0.109375 0,0.03125 0,0.046875 0.1875,0.234375 0.984375,0.984375 1.546875,2.5625 1.546875,4.640625 0,1.71875 -0.359375,3.46875 -1.59375,4.71875 C 0.5625,2.34375 0.5625,2.359375 0.5625,2.390625 0.5625,2.453125 0.609375,2.5 0.671875,2.5 0.765625,2.5 1.671875,1.8125 2.25,0.546875 2.765625,-0.546875 2.875,-1.65625 2.875,-2.5 z" style="stroke:none"/></symbol></g></defs><g id="textext-372f409d-9"><g id="g9343" style="fill:#000;fill-opacity:1"><use id="use9345" width="194.95" height="274.107" x="223.432" y="134.765" xlink:href="#textext-372f409d-1"/></g><g id="g9347" style="fill:#000;fill-opacity:1"><use id="use9349" width="194.95" height="274.107" x="231.153" y="134.765" xlink:href="#textext-372f409d-4"/></g><g id="g9351" style="fill:#000;fill-opacity:1"><use id="use9353" width="194.95" height="274.107" x="241.672" y="134.765" xlink:href="#textext-372f409d-5"/><use id="use9355" width="194.95" height="274.107" x="245.546" y="134.765" xlink:href="#textext-372f409d-6"/></g><g id="g9357" style="fill:#000;fill-opacity:1"><use id="use9359" width="194.95" height="274.107" x="250.525" y="134.765" xlink:href="#textext-372f409d-2"/></g><g id="g9361" style="fill:#000;fill-opacity:1"><use id="use9363" width="194.95" height="274.107" x="254.953" y="134.765" xlink:href="#textext-372f409d-7"/></g><g id="g9365" style="fill:#000;fill-opacity:1"><use id="use9367" width="194.95" height="274.107" x="259.934" y="134.765" xlink:href="#textext-372f409d-2"/></g><g id="g9369" style="fill:#000;fill-opacity:1"><use id="use9371" width="194.95" height="274.107" x="264.362" y="134.765" xlink:href="#textext-372f409d-7"/><use id="use9373" width="194.95" height="274.107" x="269.343" y="134.765" xlink:href="#textext-372f409d-8"/></g></g></g><g id="g10437" transform="translate(-236.02685,-169.93933)" ns0:text="$\\theta=(0,0,1)$"><defs id="defs10439"><g id="g10441"><symbol id="textext-6c8d7bec-0" overflow="visible" style="overflow:visible"><path id="path10444" style="stroke:none"/></symbol><symbol id="textext-6c8d7bec-1" overflow="visible" style="overflow:visible"><path id="path10447" d="m 4.53125,-4.984375 c 0,-0.65625 -0.171875,-2.046875 -1.1875,-2.046875 -1.390625,0 -2.921875,2.8125 -2.921875,5.09375 0,0.9375 0.28125,2.046875 1.1875,2.046875 1.40625,0 2.921875,-2.859375 2.921875,-5.09375 z M 1.46875,-3.625 C 1.640625,-4.25 1.84375,-5.046875 2.25,-5.765625 2.515625,-6.25 2.875,-6.8125 3.328125,-6.8125 c 0.484375,0 0.546875,0.640625 0.546875,1.203125 0,0.5 -0.078125,1 -0.3125,1.984375 z m 2,0.328125 C 3.359375,-2.84375 3.15625,-2 2.765625,-1.28125 c -0.34375,0.6875 -0.71875,1.171875 -1.15625,1.171875 -0.328125,0 -0.53125,-0.296875 -0.53125,-1.21875 0,-0.421875 0.0625,-1 0.3125,-1.96875 z" style="stroke:none"/></symbol><symbol id="textext-6c8d7bec-2" overflow="visible" style="overflow:visible"><path id="path10450" d="m 2.03125,-0.015625 c 0,-0.65625 -0.25,-1.046875 -0.640625,-1.046875 -0.328125,0 -0.53125,0.25 -0.53125,0.53125 C 0.859375,-0.265625 1.0625,0 1.390625,0 1.5,0 1.640625,-0.046875 1.734375,-0.125 1.765625,-0.15625 1.78125,-0.15625 1.78125,-0.15625 c 0.015625,0 0.015625,0 0.015625,0.140625 0,0.75 -0.34375,1.34375 -0.671875,1.671875 -0.109375,0.109375 -0.109375,0.125 -0.109375,0.15625 0,0.078125 0.046875,0.109375 0.09375,0.109375 0.109375,0 0.921875,-0.765625 0.921875,-1.9375 z" style="stroke:none"/></symbol><symbol id="textext-6c8d7bec-3" overflow="visible" style="overflow:visible"><path id="path10453" style="stroke:none"/></symbol><symbol id="textext-6c8d7bec-4" overflow="visible" style="overflow:visible"><path id="path10456" d="m 6.84375,-3.265625 c 0.15625,0 0.34375,0 0.34375,-0.1875 C 7.1875,-3.65625 7,-3.65625 6.859375,-3.65625 l -5.96875,0 c -0.140625,0 -0.328125,0 -0.328125,0.203125 0,0.1875 0.1875,0.1875 0.328125,0.1875 z m 0.015625,1.9375 c 0.140625,0 0.328125,0 0.328125,-0.203125 0,-0.1875 -0.1875,-0.1875 -0.34375,-0.1875 l -5.953125,0 c -0.140625,0 -0.328125,0 -0.328125,0.1875 0,0.203125 0.1875,0.203125 0.328125,0.203125 z" style="stroke:none"/></symbol><symbol id="textext-6c8d7bec-5" overflow="visible" style="overflow:visible"><path id="path10459" d="m 3.296875,2.390625 c 0,-0.03125 0,-0.046875 -0.171875,-0.21875 C 1.890625,0.921875 1.5625,-0.96875 1.5625,-2.5 c 0,-1.734375 0.375,-3.46875 1.609375,-4.703125 0.125,-0.125 0.125,-0.140625 0.125,-0.171875 0,-0.078125 -0.03125,-0.109375 -0.09375,-0.109375 -0.109375,0 -1,0.6875 -1.59375,1.953125 -0.5,1.09375 -0.625,2.203125 -0.625,3.03125 0,0.78125 0.109375,1.984375 0.65625,3.125 C 2.25,1.84375 3.09375,2.5 3.203125,2.5 c 0.0625,0 0.09375,-0.03125 0.09375,-0.109375 z" style="stroke:none"/></symbol><symbol id="textext-6c8d7bec-6" overflow="visible" style="overflow:visible"><path id="path10462" d="m 4.578125,-3.1875 c 0,-0.796875 -0.046875,-1.59375 -0.390625,-2.328125 -0.453125,-0.96875 -1.28125,-1.125 -1.6875,-1.125 -0.609375,0 -1.328125,0.265625 -1.75,1.1875 -0.3125,0.6875 -0.359375,1.46875 -0.359375,2.265625 0,0.75 0.03125,1.640625 0.453125,2.40625 0.421875,0.796875 1.15625,1 1.640625,1 0.53125,0 1.296875,-0.203125 1.734375,-1.15625 0.3125,-0.6875 0.359375,-1.46875 0.359375,-2.25 z M 2.484375,0 C 2.09375,0 1.5,-0.25 1.328125,-1.203125 1.21875,-1.796875 1.21875,-2.71875 1.21875,-3.3125 c 0,-0.640625 0,-1.296875 0.078125,-1.828125 0.1875,-1.1875 0.9375,-1.28125 1.1875,-1.28125 0.328125,0 0.984375,0.1875 1.171875,1.171875 0.109375,0.5625 0.109375,1.3125 0.109375,1.9375 0,0.75 0,1.421875 -0.109375,2.0625 C 3.5,-0.296875 2.9375,0 2.484375,0 z" style="stroke:none"/></symbol><symbol id="textext-6c8d7bec-7" overflow="visible" style="overflow:visible"><path id="path10465" d="m 2.9375,-6.375 c 0,-0.25 0,-0.265625 -0.234375,-0.265625 C 2.078125,-6 1.203125,-6 0.890625,-6 l 0,0.3125 c 0.203125,0 0.78125,0 1.296875,-0.265625 l 0,5.171875 c 0,0.359375 -0.03125,0.46875 -0.921875,0.46875 l -0.3125,0 0,0.3125 c 0.34375,-0.03125 1.203125,-0.03125 1.609375,-0.03125 0.390625,0 1.265625,0 1.609375,0.03125 l 0,-0.3125 -0.3125,0 c -0.90625,0 -0.921875,-0.109375 -0.921875,-0.46875 z" style="stroke:none"/></symbol><symbol id="textext-6c8d7bec-8" overflow="visible" style="overflow:visible"><path id="path10468" d="m 2.875,-2.5 c 0,-0.765625 -0.109375,-1.96875 -0.65625,-3.109375 -0.59375,-1.21875 -1.453125,-1.875 -1.546875,-1.875 -0.0625,0 -0.109375,0.046875 -0.109375,0.109375 0,0.03125 0,0.046875 0.1875,0.234375 0.984375,0.984375 1.546875,2.5625 1.546875,4.640625 0,1.71875 -0.359375,3.46875 -1.59375,4.71875 C 0.5625,2.34375 0.5625,2.359375 0.5625,2.390625 0.5625,2.453125 0.609375,2.5 0.671875,2.5 0.765625,2.5 1.671875,1.8125 2.25,0.546875 2.765625,-0.546875 2.875,-1.65625 2.875,-2.5 z" style="stroke:none"/></symbol></g></defs><g id="textext-6c8d7bec-9"><g id="g10471" style="fill:#000;fill-opacity:1"><use id="use10473" width="194.95" height="274.107" x="223.432" y="134.765" xlink:href="#textext-6c8d7bec-1"/></g><g id="g10475" style="fill:#000;fill-opacity:1"><use id="use10477" width="194.95" height="274.107" x="231.153" y="134.765" xlink:href="#textext-6c8d7bec-4"/></g><g id="g10479" style="fill:#000;fill-opacity:1"><use id="use10481" width="194.95" height="274.107" x="241.672" y="134.765" xlink:href="#textext-6c8d7bec-5"/><use id="use10483" width="194.95" height="274.107" x="245.546" y="134.765" xlink:href="#textext-6c8d7bec-6"/></g><g id="g10485" style="fill:#000;fill-opacity:1"><use id="use10487" width="194.95" height="274.107" x="250.525" y="134.765" xlink:href="#textext-6c8d7bec-2"/></g><g id="g10489" style="fill:#000;fill-opacity:1"><use id="use10491" width="194.95" height="274.107" x="254.953" y="134.765" xlink:href="#textext-6c8d7bec-6"/></g><g id="g10493" style="fill:#000;fill-opacity:1"><use id="use10495" width="194.95" height="274.107" x="259.934" y="134.765" xlink:href="#textext-6c8d7bec-2"/></g><g id="g10497" style="fill:#000;fill-opacity:1"><use id="use10499" width="194.95" height="274.107" x="264.362" y="134.765" xlink:href="#textext-6c8d7bec-7"/><use id="use10501" width="194.95" height="274.107" x="269.343" y="134.765" xlink:href="#textext-6c8d7bec-8"/></g></g></g><g id="g9835" transform="translate(-130.12263,-84.559185)" ns0:text="$\\theta=(0,1,0)$"><defs id="defs9837"><g id="g9839"><symbol style="overflow:visible" id="textext-8a56dc33-0" overflow="visible"><path style="stroke:none" id="path9842"/></symbol><symbol style="overflow:visible" id="textext-8a56dc33-1" overflow="visible"><path style="stroke:none" id="path9845" d="m 4.53125,-4.984375 c 0,-0.65625 -0.171875,-2.046875 -1.1875,-2.046875 -1.390625,0 -2.921875,2.8125 -2.921875,5.09375 0,0.9375 0.28125,2.046875 1.1875,2.046875 1.40625,0 2.921875,-2.859375 2.921875,-5.09375 z M 1.46875,-3.625 C 1.640625,-4.25 1.84375,-5.046875 2.25,-5.765625 2.515625,-6.25 2.875,-6.8125 3.328125,-6.8125 c 0.484375,0 0.546875,0.640625 0.546875,1.203125 0,0.5 -0.078125,1 -0.3125,1.984375 z m 2,0.328125 C 3.359375,-2.84375 3.15625,-2 2.765625,-1.28125 c -0.34375,0.6875 -0.71875,1.171875 -1.15625,1.171875 -0.328125,0 -0.53125,-0.296875 -0.53125,-1.21875 0,-0.421875 0.0625,-1 0.3125,-1.96875 z"/></symbol><symbol style="overflow:visible" id="textext-8a56dc33-2" overflow="visible"><path style="stroke:none" id="path9848" d="m 2.03125,-0.015625 c 0,-0.65625 -0.25,-1.046875 -0.640625,-1.046875 -0.328125,0 -0.53125,0.25 -0.53125,0.53125 C 0.859375,-0.265625 1.0625,0 1.390625,0 1.5,0 1.640625,-0.046875 1.734375,-0.125 1.765625,-0.15625 1.78125,-0.15625 1.78125,-0.15625 c 0.015625,0 0.015625,0 0.015625,0.140625 0,0.75 -0.34375,1.34375 -0.671875,1.671875 -0.109375,0.109375 -0.109375,0.125 -0.109375,0.15625 0,0.078125 0.046875,0.109375 0.09375,0.109375 0.109375,0 0.921875,-0.765625 0.921875,-1.9375 z"/></symbol><symbol style="overflow:visible" id="textext-8a56dc33-3" overflow="visible"><path style="stroke:none" id="path9851"/></symbol><symbol style="overflow:visible" id="textext-8a56dc33-4" overflow="visible"><path style="stroke:none" id="path9854" d="m 6.84375,-3.265625 c 0.15625,0 0.34375,0 0.34375,-0.1875 C 7.1875,-3.65625 7,-3.65625 6.859375,-3.65625 l -5.96875,0 c -0.140625,0 -0.328125,0 -0.328125,0.203125 0,0.1875 0.1875,0.1875 0.328125,0.1875 z m 0.015625,1.9375 c 0.140625,0 0.328125,0 0.328125,-0.203125 0,-0.1875 -0.1875,-0.1875 -0.34375,-0.1875 l -5.953125,0 c -0.140625,0 -0.328125,0 -0.328125,0.1875 0,0.203125 0.1875,0.203125 0.328125,0.203125 z"/></symbol><symbol style="overflow:visible" id="textext-8a56dc33-5" overflow="visible"><path style="stroke:none" id="path9857" d="m 3.296875,2.390625 c 0,-0.03125 0,-0.046875 -0.171875,-0.21875 C 1.890625,0.921875 1.5625,-0.96875 1.5625,-2.5 c 0,-1.734375 0.375,-3.46875 1.609375,-4.703125 0.125,-0.125 0.125,-0.140625 0.125,-0.171875 0,-0.078125 -0.03125,-0.109375 -0.09375,-0.109375 -0.109375,0 -1,0.6875 -1.59375,1.953125 -0.5,1.09375 -0.625,2.203125 -0.625,3.03125 0,0.78125 0.109375,1.984375 0.65625,3.125 C 2.25,1.84375 3.09375,2.5 3.203125,2.5 c 0.0625,0 0.09375,-0.03125 0.09375,-0.109375 z"/></symbol><symbol style="overflow:visible" id="textext-8a56dc33-6" overflow="visible"><path style="stroke:none" id="path9860" d="m 4.578125,-3.1875 c 0,-0.796875 -0.046875,-1.59375 -0.390625,-2.328125 -0.453125,-0.96875 -1.28125,-1.125 -1.6875,-1.125 -0.609375,0 -1.328125,0.265625 -1.75,1.1875 -0.3125,0.6875 -0.359375,1.46875 -0.359375,2.265625 0,0.75 0.03125,1.640625 0.453125,2.40625 0.421875,0.796875 1.15625,1 1.640625,1 0.53125,0 1.296875,-0.203125 1.734375,-1.15625 0.3125,-0.6875 0.359375,-1.46875 0.359375,-2.25 z M 2.484375,0 C 2.09375,0 1.5,-0.25 1.328125,-1.203125 1.21875,-1.796875 1.21875,-2.71875 1.21875,-3.3125 c 0,-0.640625 0,-1.296875 0.078125,-1.828125 0.1875,-1.1875 0.9375,-1.28125 1.1875,-1.28125 0.328125,0 0.984375,0.1875 1.171875,1.171875 0.109375,0.5625 0.109375,1.3125 0.109375,1.9375 0,0.75 0,1.421875 -0.109375,2.0625 C 3.5,-0.296875 2.9375,0 2.484375,0 z"/></symbol><symbol style="overflow:visible" id="textext-8a56dc33-7" overflow="visible"><path style="stroke:none" id="path9863" d="m 2.9375,-6.375 c 0,-0.25 0,-0.265625 -0.234375,-0.265625 C 2.078125,-6 1.203125,-6 0.890625,-6 l 0,0.3125 c 0.203125,0 0.78125,0 1.296875,-0.265625 l 0,5.171875 c 0,0.359375 -0.03125,0.46875 -0.921875,0.46875 l -0.3125,0 0,0.3125 c 0.34375,-0.03125 1.203125,-0.03125 1.609375,-0.03125 0.390625,0 1.265625,0 1.609375,0.03125 l 0,-0.3125 -0.3125,0 c -0.90625,0 -0.921875,-0.109375 -0.921875,-0.46875 z"/></symbol><symbol style="overflow:visible" id="textext-8a56dc33-8" overflow="visible"><path style="stroke:none" id="path9866" d="m 2.875,-2.5 c 0,-0.765625 -0.109375,-1.96875 -0.65625,-3.109375 -0.59375,-1.21875 -1.453125,-1.875 -1.546875,-1.875 -0.0625,0 -0.109375,0.046875 -0.109375,0.109375 0,0.03125 0,0.046875 0.1875,0.234375 0.984375,0.984375 1.546875,2.5625 1.546875,4.640625 0,1.71875 -0.359375,3.46875 -1.59375,4.71875 C 0.5625,2.34375 0.5625,2.359375 0.5625,2.390625 0.5625,2.453125 0.609375,2.5 0.671875,2.5 0.765625,2.5 1.671875,1.8125 2.25,0.546875 2.765625,-0.546875 2.875,-1.65625 2.875,-2.5 z"/></symbol></g></defs><g id="textext-8a56dc33-9"><g style="fill:#000;fill-opacity:1" id="g9869"><use id="use9871" width="194.95" height="274.107" x="223.432" y="134.765" xlink:href="#textext-8a56dc33-1"/></g><g style="fill:#000;fill-opacity:1" id="g9873"><use id="use9875" width="194.95" height="274.107" x="231.153" y="134.765" xlink:href="#textext-8a56dc33-4"/></g><g style="fill:#000;fill-opacity:1" id="g9877"><use id="use9879" width="194.95" height="274.107" x="241.672" y="134.765" xlink:href="#textext-8a56dc33-5"/><use id="use9881" width="194.95" height="274.107" x="245.546" y="134.765" xlink:href="#textext-8a56dc33-6"/></g><g style="fill:#000;fill-opacity:1" id="g9883"><use id="use9885" width="194.95" height="274.107" x="250.525" y="134.765" xlink:href="#textext-8a56dc33-2"/></g><g style="fill:#000;fill-opacity:1" id="g9887"><use id="use9889" width="194.95" height="274.107" x="254.953" y="134.765" xlink:href="#textext-8a56dc33-7"/></g><g style="fill:#000;fill-opacity:1" id="g9891"><use id="use9893" width="194.95" height="274.107" x="259.934" y="134.765" xlink:href="#textext-8a56dc33-2"/></g><g style="fill:#000;fill-opacity:1" id="g9895"><use id="use9897" width="194.95" height="274.107" x="264.362" y="134.765" xlink:href="#textext-8a56dc33-6"/><use id="use9899" width="194.95" height="274.107" x="269.343" y="134.765" xlink:href="#textext-8a56dc33-8"/></g></g></g></g><g id="layer1" transform="translate(34.749447,91.052882)" style="display:inline"><g id="g7039" transform="translate(-182.25378,46.794889)" ns0:text="$\\theta_1$"><defs id="defs7041"><g id="g7043"><symbol style="overflow:visible" id="textext-5df9ac19-0" overflow="visible"><path style="stroke:none" id="path7046"/></symbol><symbol style="overflow:visible" id="textext-5df9ac19-1" overflow="visible"><path style="stroke:none" id="path7049" d="m 4.53125,-4.984375 c 0,-0.65625 -0.171875,-2.046875 -1.1875,-2.046875 -1.390625,0 -2.921875,2.8125 -2.921875,5.09375 0,0.9375 0.28125,2.046875 1.1875,2.046875 1.40625,0 2.921875,-2.859375 2.921875,-5.09375 z M 1.46875,-3.625 C 1.640625,-4.25 1.84375,-5.046875 2.25,-5.765625 2.515625,-6.25 2.875,-6.8125 3.328125,-6.8125 c 0.484375,0 0.546875,0.640625 0.546875,1.203125 0,0.5 -0.078125,1 -0.3125,1.984375 z m 2,0.328125 C 3.359375,-2.84375 3.15625,-2 2.765625,-1.28125 c -0.34375,0.6875 -0.71875,1.171875 -1.15625,1.171875 -0.328125,0 -0.53125,-0.296875 -0.53125,-1.21875 0,-0.421875 0.0625,-1 0.3125,-1.96875 z"/></symbol><symbol style="overflow:visible" id="textext-5df9ac19-2" overflow="visible"><path style="stroke:none" id="path7052"/></symbol><symbol style="overflow:visible" id="textext-5df9ac19-3" overflow="visible"><path style="stroke:none" id="path7055" d="m 2.328125,-4.4375 c 0,-0.1875 0,-0.1875 -0.203125,-0.1875 -0.453125,0.4375 -1.078125,0.4375 -1.359375,0.4375 l 0,0.25 c 0.15625,0 0.625,0 1,-0.1875 l 0,3.546875 c 0,0.234375 0,0.328125 -0.6875,0.328125 l -0.265625,0 0,0.25 c 0.125,0 0.984375,-0.03125 1.234375,-0.03125 0.21875,0 1.09375,0.03125 1.25,0.03125 l 0,-0.25 -0.265625,0 c -0.703125,0 -0.703125,-0.09375 -0.703125,-0.328125 z"/></symbol></g></defs><g id="textext-5df9ac19-4"><g style="fill:#000;fill-opacity:1" id="g7058"><use id="use7060" width="96" height="137" x="223.432" y="134.765" xlink:href="#textext-5df9ac19-1"/></g><g style="fill:#000;fill-opacity:1" id="g7062"><use id="use7064" width="96" height="137" x="228.109" y="136.259" xlink:href="#textext-5df9ac19-3"/></g></g></g><g id="g7342" transform="translate(-75.528592,-105.49374)" ns0:text="$\\theta_2$"><defs id="defs7344"><g id="g7346"><symbol id="textext-9e012809-0" overflow="visible" style="overflow:visible"><path id="path7349" style="stroke:none"/></symbol><symbol id="textext-9e012809-1" overflow="visible" style="overflow:visible"><path id="path7352" d="m 4.53125,-4.984375 c 0,-0.65625 -0.171875,-2.046875 -1.1875,-2.046875 -1.390625,0 -2.921875,2.8125 -2.921875,5.09375 0,0.9375 0.28125,2.046875 1.1875,2.046875 1.40625,0 2.921875,-2.859375 2.921875,-5.09375 z M 1.46875,-3.625 C 1.640625,-4.25 1.84375,-5.046875 2.25,-5.765625 2.515625,-6.25 2.875,-6.8125 3.328125,-6.8125 c 0.484375,0 0.546875,0.640625 0.546875,1.203125 0,0.5 -0.078125,1 -0.3125,1.984375 z m 2,0.328125 C 3.359375,-2.84375 3.15625,-2 2.765625,-1.28125 c -0.34375,0.6875 -0.71875,1.171875 -1.15625,1.171875 -0.328125,0 -0.53125,-0.296875 -0.53125,-1.21875 0,-0.421875 0.0625,-1 0.3125,-1.96875 z" style="stroke:none"/></symbol><symbol id="textext-9e012809-2" overflow="visible" style="overflow:visible"><path id="path7355" style="stroke:none"/></symbol><symbol id="textext-9e012809-3" overflow="visible" style="overflow:visible"><path id="path7358" d="m 3.515625,-1.265625 -0.234375,0 c -0.015625,0.15625 -0.09375,0.5625 -0.1875,0.625 -0.046875,0.046875 -0.578125,0.046875 -0.6875,0.046875 l -1.28125,0 c 0.734375,-0.640625 0.984375,-0.84375 1.390625,-1.171875 0.515625,-0.40625 1,-0.84375 1,-1.5 0,-0.84375 -0.734375,-1.359375 -1.625,-1.359375 -0.859375,0 -1.453125,0.609375 -1.453125,1.25 0,0.34375 0.296875,0.390625 0.375,0.390625 0.15625,0 0.359375,-0.125 0.359375,-0.375 0,-0.125 -0.046875,-0.375 -0.40625,-0.375 C 0.984375,-4.21875 1.453125,-4.375 1.78125,-4.375 c 0.703125,0 1.0625,0.546875 1.0625,1.109375 0,0.609375 -0.4375,1.078125 -0.65625,1.328125 L 0.515625,-0.265625 C 0.4375,-0.203125 0.4375,-0.1875 0.4375,0 l 2.875,0 z" style="stroke:none"/></symbol></g></defs><g id="textext-9e012809-4"><g id="g7361" style="fill:#000;fill-opacity:1"><use id="use7363" width="96" height="137" x="223.432" y="134.765" xlink:href="#textext-9e012809-1"/></g><g id="g7365" style="fill:#000;fill-opacity:1"><use id="use7367" width="96" height="137" x="228.109" y="136.259" xlink:href="#textext-9e012809-3"/></g></g></g><g style="display:inline" id="g7677" transform="translate(-245.46792,-218.78663)" ns0:text="$\\theta_3$"><defs id="defs7679"><g id="g7681"><symbol style="overflow:visible" id="symbol7683" overflow="visible"><path style="stroke:none" id="path7685"/></symbol><symbol style="overflow:visible" id="symbol7687" overflow="visible"><path style="stroke:none" id="path7689" d="m 4.53125,-4.984375 c 0,-0.65625 -0.171875,-2.046875 -1.1875,-2.046875 -1.390625,0 -2.921875,2.8125 -2.921875,5.09375 0,0.9375 0.28125,2.046875 1.1875,2.046875 1.40625,0 2.921875,-2.859375 2.921875,-5.09375 z M 1.46875,-3.625 C 1.640625,-4.25 1.84375,-5.046875 2.25,-5.765625 2.515625,-6.25 2.875,-6.8125 3.328125,-6.8125 c 0.484375,0 0.546875,0.640625 0.546875,1.203125 0,0.5 -0.078125,1 -0.3125,1.984375 z m 2,0.328125 C 3.359375,-2.84375 3.15625,-2 2.765625,-1.28125 c -0.34375,0.6875 -0.71875,1.171875 -1.15625,1.171875 -0.328125,0 -0.53125,-0.296875 -0.53125,-1.21875 0,-0.421875 0.0625,-1 0.3125,-1.96875 z"/></symbol><symbol style="overflow:visible" id="symbol7691" overflow="visible"><path style="stroke:none" id="path7693"/></symbol><symbol style="overflow:visible" id="symbol7695" overflow="visible"><path style="stroke:none" id="path7697" d="m 1.90625,-2.328125 c 0.546875,0 0.9375,0.375 0.9375,1.125 0,0.859375 -0.515625,1.125 -0.90625,1.125 -0.28125,0 -0.90625,-0.078125 -1.1875,-0.5 0.328125,0 0.40625,-0.234375 0.40625,-0.390625 0,-0.21875 -0.171875,-0.375 -0.390625,-0.375 -0.1875,0 -0.390625,0.125 -0.390625,0.40625 0,0.65625 0.71875,1.078125 1.5625,1.078125 0.96875,0 1.640625,-0.65625 1.640625,-1.34375 0,-0.546875 -0.4375,-1.09375 -1.203125,-1.25 0.71875,-0.265625 0.984375,-0.78125 0.984375,-1.21875 0,-0.546875 -0.625,-0.953125 -1.40625,-0.953125 -0.765625,0 -1.359375,0.375 -1.359375,0.9375 0,0.234375 0.15625,0.359375 0.359375,0.359375 0.21875,0 0.359375,-0.15625 0.359375,-0.34375 0,-0.203125 -0.140625,-0.359375 -0.359375,-0.375 0.25,-0.296875 0.71875,-0.375 0.984375,-0.375 0.3125,0 0.75,0.15625 0.75,0.75 0,0.296875 -0.09375,0.625 -0.28125,0.828125 -0.21875,0.265625 -0.421875,0.28125 -0.765625,0.3125 -0.171875,0.015625 -0.1875,0.015625 -0.21875,0.015625 -0.015625,0 -0.078125,0.015625 -0.078125,0.09375 0,0.09375 0.0625,0.09375 0.1875,0.09375 z"/></symbol></g></defs><g id="g7699"><g style="fill:#000;fill-opacity:1" id="g7701"><g id="use7703" transform="translate(223.43201,134.765)"><path style="stroke:none" id="path11331" d="m 4.53125,-4.984375 c 0,-0.65625 -0.171875,-2.046875 -1.1875,-2.046875 -1.390625,0 -2.921875,2.8125 -2.921875,5.09375 0,0.9375 0.28125,2.046875 1.1875,2.046875 1.40625,0 2.921875,-2.859375 2.921875,-5.09375 z M 1.46875,-3.625 C 1.640625,-4.25 1.84375,-5.046875 2.25,-5.765625 2.515625,-6.25 2.875,-6.8125 3.328125,-6.8125 c 0.484375,0 0.546875,0.640625 0.546875,1.203125 0,0.5 -0.078125,1 -0.3125,1.984375 z m 2,0.328125 C 3.359375,-2.84375 3.15625,-2 2.765625,-1.28125 c -0.34375,0.6875 -0.71875,1.171875 -1.15625,1.171875 -0.328125,0 -0.53125,-0.296875 -0.53125,-1.21875 0,-0.421875 0.0625,-1 0.3125,-1.96875 z"/></g></g><g style="fill:#000;fill-opacity:1" id="g7705"><g id="use7707" transform="translate(228.10899,136.259)"><path style="stroke:none" id="path11339" d="m 1.90625,-2.328125 c 0.546875,0 0.9375,0.375 0.9375,1.125 0,0.859375 -0.515625,1.125 -0.90625,1.125 -0.28125,0 -0.90625,-0.078125 -1.1875,-0.5 0.328125,0 0.40625,-0.234375 0.40625,-0.390625 0,-0.21875 -0.171875,-0.375 -0.390625,-0.375 -0.1875,0 -0.390625,0.125 -0.390625,0.40625 0,0.65625 0.71875,1.078125 1.5625,1.078125 0.96875,0 1.640625,-0.65625 1.640625,-1.34375 0,-0.546875 -0.4375,-1.09375 -1.203125,-1.25 0.71875,-0.265625 0.984375,-0.78125 0.984375,-1.21875 0,-0.546875 -0.625,-0.953125 -1.40625,-0.953125 -0.765625,0 -1.359375,0.375 -1.359375,0.9375 0,0.234375 0.15625,0.359375 0.359375,0.359375 0.21875,0 0.359375,-0.15625 0.359375,-0.34375 0,-0.203125 -0.140625,-0.359375 -0.359375,-0.375 0.25,-0.296875 0.71875,-0.375 0.984375,-0.375 0.3125,0 0.75,0.15625 0.75,0.75 0,0.296875 -0.09375,0.625 -0.28125,0.828125 -0.21875,0.265625 -0.421875,0.28125 -0.765625,0.3125 -0.171875,0.015625 -0.1875,0.015625 -0.21875,0.015625 -0.015625,0 -0.078125,0.015625 -0.078125,0.09375 0,0.09375 0.0625,0.09375 0.1875,0.09375 z"/></g></g></g></g></g></svg>